<?xml version="1.0" encoding="utf-8"?>
<!-- Generator: Adobe Illustrator 17.1.0, SVG Export Plug-In . SVG Version: 6.00 Build 0)  -->
<!DOCTYPE svg PUBLIC "-//W3C//DTD SVG 1.1//EN" "http://www.w3.org/Graphics/SVG/1.1/DTD/svg11.dtd">
<svg version="1.1" id="Layer_1" xmlns="http://www.w3.org/2000/svg" xmlns:xlink="http://www.w3.org/1999/xlink" x="0px" y="0px"
	 viewBox="0 0 595.3 841.9" enable-background="new 0 0 595.3 841.9" xml:space="preserve">
<g>
	<path fill="#F26F6F" d="M298.5,292.3c10.6-18.9,23.4-35.4,40.7-48.3c46-34.7,97.3-43,150.8-21.9s86.7,61.8,95,119.2
		c8.3,58.1-10.6,110.1-44.5,156.9c-38.5,53.5-89.7,92.8-145.5,127.4c-29.4,18.1-60.3,33.9-92,46.8c-5.3,2.3-10.6,3-16.6,0.8
		c-73.9-33.2-142.5-74.7-199.8-133.5c-37.7-40-64.9-86-75.4-141c-15.1-82.2,29.4-156.9,107.1-181c64.9-19.6,137.3,7.5,173.4,65.6
		C293.2,286.2,294.7,290,298.5,292.3z"/>
</g>
<g>
	<path fill="#FAF2F2" d="M266.4,358.1c-14.7,1.1-21.7,4.4-32.8,10.9c-7.5,4.3-14.7,17.9-23.8,36.4c-3.5,6.6-8.5,18-8.5,24.7
		c0,2.5,1.3,5.7,3.8,5.7c5.1,0,10.4-11.1,10.5-11.5c0.7-0.2,0.7,0.1,1.3-0.2c-4.7,10-8.5,13.5-13.5,13.5c-5.9,0-9.7-5-9.7-12.2
		c0-12.1,11.6-29.3,25.3-46.6c-6.2,4.8-14,11.8-20.3,19.7c-11.7,14.5-23.4,33.9-29.1,40c-0.4-0.6-0.6-1.3-0.6-1.6
		c2.9-8.2,3.9-8.5,3.9-16.2c0-26.8,1.1-30.8,7.9-45.2c-10.5,10.9-19.5,36.5-25.6,47.7c-4.5,8.2-17.6,15.1-30,15.1
		c-18,0-33.7-13.3-33.7-28.7c0-17.3,13.3-31.1,28.3-31.1c12.9,0,23.3,9.2,23.3,20.8c0,12.2-11.1,22.6-21.1,22.6
		c-9.3,0-14.3-6.9-14.3-16.2c0-3.8,1.4-7.8,2.4-10.4l1.4,0.4c-1.1,2.6-2.5,6.7-2.5,10c0,8.8,5.1,14.9,13,14.9
		c9.6,0,19.8-9.9,19.8-21.3c0-11.2-10.2-19.5-22-19.5c-14.6,0-27,13.7-27,29.7c0,10.8,10.5,27.4,32.4,27.4
		c13.1,0,23.3-11.2,30.8-25.1c14.6-26.4,22.9-41.9,33.7-48.4c0,0-18.3-6.2-22.3-6.2c-25.8,0-25.4,17.2-25.4,19.1
		c0,7.5,5,13.9,11.6,13.9c1.7,0,4.3-0.7,6.1-2.5h0.7c-3,4.3-5,5.5-8.4,5.5c-7.9,0-13.9-6.5-13.9-15.1c0-7.5,3.6-21.9,29.3-21.9
		c3.9,0,23.4,6.5,23.4,6.5c3.8-2.2,7.2-1.8,7.2,0.4c0,1.9-2.9,2.7-5.1,1.4c-3.1,4.3-5.3,11.8-6.3,19.4c-0.8,6.8,0.6,11.3-0.4,18.2
		c-0.8,6.2-3.3,11.9-4.7,16.1c20.1-29,35.5-41.8,50.9-50.5c11.3-6.3,16.8-9.9,34-11L266.4,358.1z"/>
	<path fill="#FAF2F2" d="M481.8,455.4c-18.3,0.4-30.3-10.3-33.2-12.3c-2.5,1.3-24.2,15.3-44.9,15.3c-27.6,0-47.8-18.8-47.8-44.3
		c0-25.8,17-43,42.4-43c2.9,0,5.6,1,6.9,1.4v1.4c-1.9-0.7-4.7-1.6-6.9-1.6c-26.5,0-41.1,19.5-41.1,41.7c0,24.6,19.7,43.1,46.5,43.1
		c19.7,0,43.7-15,43.7-15l-4.3-3.8c0,0-12.2,2.6-12.2-3.2c0-5.6,12.5,0.4,12.5,0.4c1.4,0,8.7-6.7,9.3-8.2c1.2-2.9,9.7-20.9,9.7-28.9
		c-3.6,0.7-10.8,1.1-14.6,1.1c-6.5,9.3-22.3,39.4-43.7,39.4c-12.3,0-18.8-6.8-18.8-15.5c0-13.3,13.4-25.7,31.7-25.7h29.7
		c0,0,3.6-7.8,9.3-15c17.4-22,34.6-25.8,34.6-25.8c0.7,0,1.2,1.1,1.2,1.9c0,4.3-15.2,7.8-17.3,35.7c0,0,23.2-7.5,23.2-29.1
		c0-17.1-17.4-30.5-39.3-30.5c-23.8,0-40.5,17-40.5,30.9c0,17.6,12.5,21.7,12.5,21.7l-0.4,1.6c0,0-13.9-4.4-13.9-23.3
		c0-14.7,17.7-32.6,42.2-32.6c22.9,0,41,14.2,41,32.1c0,23.3-25.1,31.3-25.1,31.3s-0.8,6.9-1.2,8.5c-1.2,4.9-9.3,22.8-27.2,32.7
		c1.4,1.3,3,2.7,3.6,3.3c25.8-16,29.1-17.8,38.1-17.8c9,0,16,6.2,16,13.9C503.7,447.2,491.5,455.2,481.8,455.4z M421.4,399.7
		c-16.5,0-30.3,11.3-30.3,23.7c0,10.2,5.3,13.9,13.1,13.9c18.8,0,34.3-27,41.2-37.5H421.4z M433.4,435.5c0,3,6.6,1.1,6.6,1.1
		S433.4,433,433.4,435.5z M461.5,378.6c-8.1,9.2-11.7,17.3-12.3,19c1.9,0,9.6-0.4,13.4-1.1c2.9-18.6,22.6-34.9,20.4-34.9
		C480,361.7,468.8,370.3,461.5,378.6z M487.8,425c-9.6,0-13.1,2.6-37,17.2c0,0,12.7,11.6,31.1,11.6c9.4,0,20.2-8,20.2-16.5
		C502,430.2,495.9,425,487.8,425z"/>
</g>
<g>
	<path fill="none" stroke="#FAF2F2" stroke-width="3" stroke-miterlimit="10" d="M297.7,398.1c0.9-1.7,2.1-3.2,3.6-4.3
		c4.1-3.1,8.7-3.8,13.5-2c4.8,1.9,7.7,5.5,8.5,10.6c0.7,5.2-0.9,9.8-4,14c-3.4,4.8-8,8.3-13,11.4c-2.6,1.6-5.4,3-8.2,4.2
		c-0.5,0.2-0.9,0.3-1.5,0.1c-6.6-3-12.7-6.7-17.9-11.9c-3.4-3.6-5.8-7.7-6.7-12.6c-1.3-7.3,2.6-14,9.6-16.2
		c5.8-1.8,12.3,0.7,15.5,5.9C297.2,397.6,297.4,397.9,297.7,398.1z"/>
</g>
</svg>
