<?xml version="1.0" encoding="utf-8"?>
<!-- Generator: Adobe Illustrator 17.1.0, SVG Export Plug-In . SVG Version: 6.00 Build 0)  -->
<!DOCTYPE svg PUBLIC "-//W3C//DTD SVG 1.1//EN" "http://www.w3.org/Graphics/SVG/1.1/DTD/svg11.dtd">
<svg version="1.1" id="Layer_1" xmlns="http://www.w3.org/2000/svg" xmlns:xlink="http://www.w3.org/1999/xlink" x="0px" y="0px"
	 viewBox="0 0 307.076 195.134" enable-background="new 0 0 307.076 195.134" xml:space="preserve">
<g>
	<path fill="#692637" d="M68.409,56.774c-4.823,0.353-7.137,1.451-10.784,3.568c-2.47,1.412-4.823,5.883-7.804,11.961
		c-1.137,2.156-2.784,5.921-2.784,8.117c0,0.823,0.432,1.883,1.255,1.883c1.687,0,3.412-3.647,3.451-3.765
		c0.235-0.079,0.235,0.039,0.432-0.079c-1.529,3.294-2.784,4.432-4.432,4.432c-1.922,0-3.177-1.647-3.177-4
		c0-3.961,3.805-9.607,8.314-15.294c-2.04,1.568-4.589,3.883-6.667,6.471c-3.843,4.745-7.687,11.137-9.568,13.137
		c-0.118-0.196-0.196-0.431-0.196-0.51c0.941-2.706,1.294-2.784,1.294-5.333c0-8.784,0.354-10.117,2.589-14.823
		c-3.451,3.568-6.393,12-8.393,15.646c-1.49,2.706-5.765,4.941-9.843,4.941c-5.922,0-11.059-4.353-11.059-9.412
		c0-5.686,4.353-10.195,9.294-10.195c4.235,0,7.646,3.02,7.646,6.823c0,4-3.646,7.412-6.94,7.412c-3.059,0-4.706-2.275-4.706-5.334
		c0-1.255,0.471-2.549,0.784-3.411l0.471,0.117c-0.353,0.863-0.823,2.196-0.823,3.294c0,2.902,1.686,4.902,4.274,4.902
		c3.137,0,6.51-3.255,6.51-6.98c0-3.687-3.334-6.393-7.216-6.393c-4.784,0-8.863,4.51-8.863,9.765c0,3.529,3.451,8.98,10.627,8.98
		c4.313,0,7.646-3.687,10.117-8.235c4.784-8.666,7.529-13.764,11.059-15.882c0,0-6-2.039-7.333-2.039
		c-8.471,0-8.353,5.646-8.353,6.274c0,2.471,1.646,4.549,3.804,4.549c0.549,0,1.412-0.235,2-0.823h0.235
		c-0.98,1.411-1.647,1.804-2.745,1.804c-2.588,0-4.549-2.117-4.549-4.941c0-2.471,1.176-7.176,9.607-7.176
		c1.294,0,7.687,2.117,7.687,2.117c1.255-0.706,2.353-0.588,2.353,0.118c0,0.627-0.941,0.901-1.687,0.47
		c-1.02,1.412-1.726,3.883-2.078,6.354c-0.274,2.235,0.196,3.726-0.117,5.961c-0.274,2.039-1.099,3.921-1.529,5.294
		c6.588-9.529,11.646-13.726,16.705-16.588c3.726-2.079,5.529-3.255,11.177-3.608L68.409,56.774z"/>
	<path fill="#692637" d="M62.446,82.734c-1.726,0-2.353-0.94-2.98-2.313c-1.372,1.843-2.549,2.313-3.726,2.313
		c-1.529,0-2.666-1.294-2.666-3.882c0-3.529,3.646-8.471,8.784-8.471c0.823,0,1.411,0.118,2,0.941c0,0,0.431-0.588,0.823-0.588
		c0.471,0,1.177,0.234,1.647,0.234c0.313,0,0.862-0.901,1.294-1.059l-5.138,9.647c-0.549,1.02-0.666,1.372-0.666,1.804
		c0,0.392,0.274,0.784,0.862,0.784c1.451,0,6.353-4.706,9.765-8.823l0.313,0.274C68.603,78.695,64.407,82.734,62.446,82.734z
		 M62.446,71.088c-3.412,0-7.059,7.568-7.059,9.765c0,0.823,0.117,1.294,0.784,1.294c1.451,0,2.471-1.529,3.098-2.588
		c1.608-2.745,4-6.902,4-7.529C63.269,71.598,62.995,71.088,62.446,71.088z"/>
	<path fill="#692637" d="M73.74,82.734c-1.295,0-2.079-1.059-2.118-2.901c-0.039-1.726,3.294-5.726,3.294-6.823
		c0-0.235,0-0.274-0.156-0.274c-0.824,0-1.06,1.215-2.471,1.215c-0.628,0-0.98-0.627-0.98-1.49c0-1.294,1.216-2.979,2.274-2.979
		c0.471,0,0.941,0.353,0.941,0.901c0,0.706-0.589,1.804-1.373,2.706c2-1.647,3.138-2.706,4.118-2.706
		c0.823,0,1.372,0.745,1.372,1.529c0,0.824-0.432,1.255-0.823,1.922l-3.099,5.294c-0.47,0.784-0.745,1.372-0.745,1.607
		c0,0.745,0.471,1.06,1.02,1.06c2.667,0,6.118-4.354,8.98-8.471l0.314,0.274C79.151,81.362,76.445,82.734,73.74,82.734z
		 M73.583,70.068c-0.784,0-1.608,1.687-1.608,2.392c0,0.51,0.196,0.667,0.432,0.667c0.745-0.941,1.529-2.157,1.529-2.706
		C73.935,70.265,73.857,70.068,73.583,70.068z"/>
	<path fill="#692637" d="M87.425,72.146c-0.901,2-3.098,6.078-3.098,8.823c0,0.471,0.353,0.941,0.823,0.941
		c2.117,0,5.687-4.117,8-8.588l0.313,0.274c-2.98,5.372-5.687,8.901-9.372,9.137c-1.412,0.079-2.354-1.255-2.354-3.294
		c0-6.588,12.314-23.176,15.844-23.176c0.627,0,1.215,0.706,1.215,1.412C98.758,59.99,95.347,67.52,87.425,72.146z M96.562,57.088
		c-1.295,0-6.55,9.098-8.314,13.765c4.902-2.862,8.863-10.98,8.863-12.941C97.111,57.48,96.876,57.088,96.562,57.088z"/>
	<path fill="#692637" d="M93.933,82.734c-2.195,0-3.45-1.726-3.45-3.529c0-5.45,6.039-8.823,8.979-8.823
		c1.216,0,2.235,0.941,2.235,2.157c0,3.843-6.784,5.372-8.117,5.372c-0.432,0.941-0.706,1.412-0.706,2.745
		c0,0.823,0.274,1.451,1.059,1.451c3.922,0,9.844-6.432,11.255-8.784l0.314,0.274C104.326,75.559,98.326,82.734,93.933,82.734z
		 M98.914,70.892c-1.137,0-2.94,2.118-4.94,6.078c2.195,0,5.765-3.725,5.765-5.176C99.738,71.205,99.463,70.892,98.914,70.892z"/>
	<path fill="#692637" d="M114.56,80.382c-1.138,1.294-2.274,2.393-3.961,2.393c-1.49,0-2.157-1.06-2.274-2.393
		c-0.039-0.588-0.039-1.098,0.823-2.393l3.255-4.979c0.353-0.55,0.549-0.98,0.549-1.177c0-0.235-0.156-0.354-0.588-0.354
		c-1.098,0-3.961,1.961-6.823,6.785c-1.255,2.078-1.922,4.117-2.824,4.117c-0.51,0-1.02-0.353-1.45-0.353
		c-0.354,0-1.451,1.176-1.451,1.176l6.039-11.529c0.313-0.588,0.549-0.94,1.177-0.94c0.705,0,0.823,0.313,1.372,0.313
		c0.354,0,0.823-0.863,1.451-1.138l-2,3.765c2.588-2.274,4.157-3.294,5.882-3.294c1.099,0,1.805,0.706,1.805,1.804
		c0,0.706-0.196,1.255-0.745,2.118l-3.647,5.686c-0.392,0.589-0.706,1.099-0.706,1.334c0,0.471,0.235,0.706,0.824,0.706
		c0.745,0,1.96-0.941,3.255-2.354l5.764-6.353l0.314,0.274C119.736,74.617,114.56,80.382,114.56,80.382z"/>
	<path fill="#692637" d="M121.068,82.734c-2.195,0-3.45-1.726-3.45-3.529c0-5.45,6.039-8.823,8.979-8.823
		c1.216,0,2.235,0.941,2.235,2.157c0,3.843-6.784,5.372-8.117,5.372c-0.432,0.941-0.706,1.412-0.706,2.745
		c0,0.823,0.274,1.451,1.059,1.451c3.922,0,9.844-6.432,11.255-8.784l0.314,0.274C131.461,75.559,125.461,82.734,121.068,82.734z
		 M126.049,70.892c-1.137,0-2.94,2.118-4.94,6.078c2.195,0,5.765-3.725,5.765-5.176C126.873,71.205,126.598,70.892,126.049,70.892z"
		/>
</g>
<g>
	<path fill="#692637" d="M152.511,80.979c0,2.744-1.085,5.004-3.255,6.778c-2.222,1.748-4.679,2.623-7.372,2.623
		c-1.251,0-2.278-0.249-3.083-0.747c-0.816-0.421-1.225-1.021-1.225-1.8c0-0.97,0.536-1.768,1.608-2.394
		c0.816-0.497,1.717-0.746,2.699-0.746c0.587,0,1.271,0.146,2.049,0.44l-0.038,0.114c-0.843-0.242-1.525-0.363-2.049-0.363
		c-1.034,0-1.946,0.274-2.738,0.823c-0.894,0.663-1.34,1.372-1.34,2.125c0,0.651,0.37,1.188,1.11,1.608
		c0.677,0.421,1.576,0.632,2.699,0.632c2.17,0,4.327-0.995,6.472-2.986c2.72-2.489,4.079-4.998,4.079-7.525c0-0.102,0-0.236,0-0.402
		c0-0.179-0.014-0.396-0.039-0.65c-1.327,1.2-2.387,2.01-3.178,2.432c-0.83,0.459-1.653,0.677-2.471,0.65
		c-0.549,0-1.033-0.102-1.455-0.306c-0.677-0.447-1.015-1.072-1.015-1.877c0-0.498,0.182-1.046,0.546-1.646
		c0.363-0.6,0.846-1.11,1.445-1.531c0.217-0.166,0.431-0.3,0.642-0.402s0.405-0.179,0.584-0.229
		c0.396-0.103,1.379-0.377,2.949-0.824c0.255-0.051,0.494-0.102,0.718-0.152c0.223-0.051,0.424-0.103,0.603-0.153
		c0.051-0.996,0.274-1.819,0.671-2.471c0.421-0.688,0.97-1.25,1.646-1.685c0.65-0.421,1.314-0.632,1.991-0.632
		c0.919,0,1.379,0.39,1.379,1.168c0,1.175-0.824,2.132-2.471,2.872c-0.523,0.229-1.5,0.543-2.93,0.938
		c0.026,0.97,0.179,1.959,0.46,2.968c0.753-0.753,1.445-1.397,2.077-1.934s1.171-0.958,1.618-1.264
		c0.881-0.639,1.704-0.958,2.47-0.958c0.435,0,0.823,0.134,1.168,0.402c0.345,0.229,0.518,0.517,0.518,0.861
		c0,0.204-0.093,0.399-0.278,0.584c-0.185,0.186-0.366,0.278-0.545,0.278c-0.218,0-0.402-0.077-0.556-0.23
		c-0.128-0.191-0.191-0.363-0.191-0.517c0-0.28,0.166-0.543,0.498-0.785c0.114-0.025,0.172-0.063,0.172-0.115
		c0-0.102-0.096-0.165-0.287-0.191c-0.204-0.076-0.37-0.114-0.498-0.114c-0.74,0-1.589,0.376-2.546,1.129
		c-1.021,0.754-2.202,1.902-3.543,3.447C152.433,79.294,152.511,80.213,152.511,80.979z M151.841,77.082
		c-0.039-0.312-0.103-0.692-0.192-1.14c-0.051-0.306-0.096-0.564-0.134-0.775c-0.038-0.21-0.058-0.366-0.058-0.469
		c-1.148,0.307-2.049,0.619-2.699,0.938c-0.574,0.268-1.149,0.645-1.724,1.13c-0.625,0.574-1.148,1.206-1.57,1.896
		c-0.421,0.6-0.632,1.123-0.632,1.569c0,0.332,0.147,0.619,0.44,0.862c0.281,0.204,0.632,0.306,1.054,0.306
		c0.854,0,1.793-0.312,2.814-0.938c0.97-0.601,1.901-1.462,2.796-2.585C151.91,77.66,151.879,77.395,151.841,77.082z
		 M154.827,73.358c1.392-0.702,2.087-1.538,2.087-2.509c0-0.651-0.383-0.977-1.148-0.977c-0.728,0-1.379,0.211-1.953,0.632
		c-0.601,0.383-1.11,0.945-1.532,1.686c-0.357,0.625-0.555,1.372-0.593,2.24C153.053,74.137,154.1,73.779,154.827,73.358z"/>
</g>
<g>
	<path fill="#692637" d="M212.557,88.734c-5.999,0.118-9.96-3.372-10.901-4.039c-0.823,0.432-7.961,5.02-14.745,5.02
		c-9.059,0-15.686-6.156-15.686-14.549c0-8.471,5.568-14.117,13.921-14.117c0.941,0,1.844,0.313,2.274,0.471v0.471
		c-0.627-0.235-1.529-0.51-2.274-0.51c-8.705,0-13.49,6.392-13.49,13.686c0,8.078,6.471,14.157,15.255,14.157
		c6.471,0,14.353-4.941,14.353-4.941l-1.411-1.255c0,0-4,0.862-4-1.059c0-1.844,4.117,0.117,4.117,0.117
		c0.471,0,2.863-2.196,3.059-2.706c0.393-0.94,3.177-6.862,3.177-9.489c-1.177,0.235-3.529,0.353-4.784,0.353
		c-2.117,3.059-7.333,12.941-14.353,12.941c-4.039,0-6.157-2.235-6.157-5.099c0-4.353,4.393-8.431,10.393-8.431h9.765
		c0,0,1.176-2.55,3.059-4.941c5.726-7.216,11.372-8.471,11.372-8.471c0.235,0,0.393,0.354,0.393,0.628
		c0,1.411-4.98,2.549-5.687,11.725c0,0,7.607-2.47,7.607-9.568c0-5.607-5.725-10-12.901-10c-7.804,0-13.294,5.569-13.294,10.157
		c0,5.765,4.117,7.137,4.117,7.137l-0.117,0.51c0,0-4.549-1.45-4.549-7.646c0-4.823,5.804-10.706,13.843-10.706
		c7.529,0,13.451,4.667,13.451,10.549c0,7.647-8.235,10.274-8.235,10.274s-0.274,2.274-0.393,2.784
		c-0.392,1.608-3.059,7.49-8.94,10.745c0.47,0.432,0.979,0.902,1.176,1.098c8.471-5.254,9.568-5.843,12.51-5.843
		s5.255,2.039,5.255,4.549C219.733,86.028,215.733,88.656,212.557,88.734z M192.714,70.421c-5.411,0-9.96,3.726-9.96,7.765
		c0,3.333,1.726,4.549,4.313,4.549c6.156,0,11.255-8.862,13.529-12.313H192.714z M196.675,82.186c0,0.98,2.157,0.354,2.157,0.354
		S196.675,81.362,196.675,82.186z M205.891,63.52c-2.667,3.02-3.843,5.686-4.039,6.235c0.627,0,3.137-0.118,4.392-0.354
		c0.941-6.117,7.412-11.45,6.706-11.45C211.969,57.951,208.282,60.774,205.891,63.52z M214.517,78.734
		c-3.137,0-4.313,0.863-12.156,5.647c0,0,4.156,3.804,10.195,3.804c3.099,0,6.628-2.627,6.628-5.411
		C219.184,80.46,217.184,78.734,214.517,78.734z"/>
	<path fill="#692637" d="M223.104,80.382c-1.138,1.294-2.274,2.393-3.961,2.393c-1.49,0-2.157-1.06-2.274-2.393
		c-0.039-0.588-0.039-1.098,0.823-2.393l3.255-4.979c0.354-0.55,0.549-0.98,0.549-1.177c0-0.235-0.156-0.354-0.588-0.354
		c-1.098,0-3.961,1.961-6.823,6.785c-1.255,2.078-1.922,4.117-2.823,4.117c-0.511,0-1.021-0.353-1.451-0.353
		c-0.354,0-1.451,1.176-1.451,1.176l6.039-11.529c0.313-0.588,0.549-0.94,1.177-0.94c0.706,0,0.823,0.313,1.372,0.313
		c0.354,0,0.823-0.863,1.451-1.138l-2,3.765c2.588-2.274,4.157-3.294,5.882-3.294c1.099,0,1.805,0.706,1.805,1.804
		c0,0.706-0.196,1.255-0.745,2.118l-3.647,5.686c-0.392,0.589-0.706,1.099-0.706,1.334c0,0.471,0.235,0.706,0.824,0.706
		c0.745,0,1.96-0.941,3.255-2.354l5.765-6.353l0.313,0.274C228.28,74.617,223.104,80.382,223.104,80.382z"/>
	<path fill="#692637" d="M239.612,72.146c0,0-4.431,8.078-4.431,9.059c0,0.589,0.313,1.02,0.823,1.02
		c1.647,0,4.941-3.49,9.765-8.901l0.313,0.274c-5.294,5.961-8.196,9.255-10.235,9.255c-1.726,0-2.431-0.823-3.137-2.706
		c-1.647,2-2,2.588-3.568,2.588c-1.687,0-2.902-1.843-2.902-3.607c0-5.098,4.588-8.745,9.255-8.745c0.862,0,1.333,0.393,2,1.059
		c4.235-7.176,9.411-13.96,12.627-13.96c0.589,0,1.138,0.549,1.138,1.372C251.26,63.01,243.338,70.382,239.612,72.146z
		 M235.495,70.892c-2.274,0-7.059,7.294-7.059,9.961c0,0.627,0.235,1.372,0.862,1.372c1.568,0,2.549-2.039,4.118-4.235
		c2.117-2.94,3.255-5.059,3.255-6.039C236.672,71.44,236.005,70.892,235.495,70.892z M248.906,58.265
		c-1.568,0-7.098,9.961-8.627,12.666c5.607-3.372,9.333-9.45,9.333-11.804C249.612,58.656,249.299,58.265,248.906,58.265z"/>
	<path fill="#692637" d="M247.062,82.734c-1.295,0-2.079-1.059-2.118-2.901c-0.039-1.726,3.294-5.726,3.294-6.823
		c0-0.235,0-0.274-0.156-0.274c-0.824,0-1.06,1.215-2.471,1.215c-0.628,0-0.98-0.627-0.98-1.49c0-1.294,1.216-2.979,2.274-2.979
		c0.471,0,0.941,0.353,0.941,0.901c0,0.706-0.589,1.804-1.373,2.706c2-1.647,3.138-2.706,4.118-2.706
		c0.823,0,1.372,0.745,1.372,1.529c0,0.824-0.432,1.255-0.823,1.922l-3.099,5.294c-0.47,0.784-0.745,1.372-0.745,1.607
		c0,0.745,0.471,1.06,1.02,1.06c2.667,0,6.118-4.354,8.98-8.471l0.314,0.274C252.474,81.362,249.767,82.734,247.062,82.734z
		 M246.905,70.068c-0.784,0-1.608,1.687-1.608,2.392c0,0.51,0.196,0.667,0.432,0.667c0.745-0.941,1.529-2.157,1.529-2.706
		C247.258,70.265,247.18,70.068,246.905,70.068z"/>
	<path fill="#692637" d="M258.08,82.734c-2.195,0-3.45-1.726-3.45-3.529c0-5.45,6.039-8.823,8.98-8.823
		c1.216,0,2.235,0.941,2.235,2.157c0,3.843-6.784,5.372-8.117,5.372c-0.432,0.941-0.706,1.412-0.706,2.745
		c0,0.823,0.274,1.451,1.059,1.451c3.922,0,9.844-6.432,11.255-8.784l0.314,0.274C268.473,75.559,262.473,82.734,258.08,82.734z
		 M263.06,70.892c-1.137,0-2.94,2.118-4.94,6.078c2.195,0,5.765-3.725,5.765-5.176C263.885,71.205,263.609,70.892,263.06,70.892z"/>
	<path fill="#692637" d="M276.04,82.734c-1.726,0-2.353-0.94-2.98-2.313c-1.372,1.843-2.549,2.313-3.726,2.313
		c-1.529,0-2.666-1.294-2.666-3.882c0-3.529,3.646-8.471,8.784-8.471c0.823,0,1.411,0.118,2,0.941c0,0,0.431-0.588,0.823-0.588
		c0.471,0,1.177,0.234,1.647,0.234c0.313,0,0.862-0.901,1.294-1.059l-5.138,9.647c-0.549,1.02-0.666,1.372-0.666,1.804
		c0,0.392,0.274,0.784,0.862,0.784c1.451,0,6.353-4.706,9.765-8.823l0.313,0.274C282.197,78.695,278.001,82.734,276.04,82.734z
		 M276.04,71.088c-3.412,0-7.059,7.568-7.059,9.765c0,0.823,0.117,1.294,0.784,1.294c1.451,0,2.471-1.529,3.098-2.588
		c1.608-2.745,4-6.902,4-7.529C276.863,71.598,276.589,71.088,276.04,71.088z"/>
	<path fill="#692637" d="M287.529,80.656c-0.901,1.059-2.431,2.157-4.392,2.157c-2.039,0-3.099-1.099-3.099-2.784
		c0-1.138,0.745-2.196,1.883-2.196c1.098,0,1.961,1.411,2.784,1.726c1.059-0.745,1.49-2.589,1.49-3.451
		c0-0.902-0.745-2.235-0.745-3.804c0-1.647,0.627-3.765,2.078-3.765c0.589,0,0.98,0.235,0.98,0.706c0,1.176-0.706,2.117-1.216,3.02
		c0,0,1.177,2.588,1.177,4.274c0,1.372-0.432,3.137-0.706,3.568c2.628-0.588,4.589-1.255,7.961-6.784l0.313,0.274
		C292.392,79.676,289.922,80.304,287.529,80.656z M282.196,78.539c-0.393,0-0.706,0.353-0.706,0.784c0,0.706,0.589,0.98,1.255,1.098
		c0.628,0.118,1.334-0.039,1.568-0.471C283.373,79.52,282.863,78.539,282.196,78.539z M287.568,68.892
		c-0.274,0-0.705,0.745-0.745,1.647c0,0.392,0.04,0.862,0.235,1.255c0.824-1.177,0.98-1.765,0.98-2.471
		C288.039,69.127,287.922,68.853,287.568,68.892z"/>
</g>
<g>
	<path fill="#692637" d="M96.855,130.935c1.22-0.238,2.493-0.732,3.82-1.481c1.326-0.75,2.652-1.741,3.979-2.976
		c0.544-0.517,1.11-1.127,1.701-1.83c0.59-0.703,0.958-1.055,1.104-1.055c0.079,0,0.132,0.014,0.159,0.04
		c0.026,0.026,0.04,0.079,0.04,0.159c0,0.266-0.429,0.875-1.284,1.83s-1.854,1.884-2.994,2.786
		c-1.446,1.114-2.872,1.957-4.278,2.526c-1.406,0.57-2.779,0.856-4.119,0.856c-0.929,0-1.635-0.159-2.119-0.478
		c-0.483-0.318-0.726-0.776-0.726-1.373c0-0.53,0.182-1.008,0.547-1.433s0.766-0.637,1.204-0.637c0.225,0,0.418,0.066,0.577,0.198
		c0.159,0.133,0.238,0.299,0.238,0.498c0,0.212-0.306,0.438-0.915,0.677c-0.61,0.238-0.916,0.544-0.916,0.915
		c0,0.226,0.083,0.415,0.249,0.567s0.382,0.235,0.646,0.248c0.372,0,0.789-0.126,1.254-0.378c0.464-0.252,0.955-0.617,1.473-1.095
		c1.087-0.981,1.97-2.092,2.646-3.332s1.015-2.345,1.015-3.313c0-0.464-0.047-0.905-0.14-1.323s-0.232-0.792-0.418-1.124
		c-1.181,1.512-2.105,2.637-2.775,3.372c-0.67,0.736-1.091,1.104-1.264,1.104c-0.053,0-0.093-0.017-0.119-0.05
		c-0.026-0.032-0.04-0.096-0.04-0.188c0-0.173,0.435-0.729,1.304-1.672c0.868-0.941,1.602-1.837,2.198-2.686
		c0.252-0.358,0.451-0.883,0.598-1.572c0.146-0.689,0.438-1.035,0.875-1.035c0.172,0,0.315,0.07,0.428,0.209
		c0.112,0.14,0.169,0.315,0.169,0.527c0,0.346-0.1,0.684-0.298,1.015c-0.199,0.332-0.299,0.512-0.299,0.538
		c0.968,1.751,1.452,3.091,1.452,4.019c0,1.341-0.44,2.627-1.322,3.86C99.624,129.085,98.407,130.112,96.855,130.935z"/>
	<path fill="#692637" d="M103.303,128.527l4.039-5.054c4.443-5.611,8.287-9.936,11.53-12.974c3.244-3.038,5.622-4.557,7.134-4.557
		c0.385,0,0.684,0.116,0.896,0.348c0.212,0.232,0.318,0.555,0.318,0.966c0,1.711-1.442,3.866-4.328,6.467
		c-2.885,2.6-6.536,4.868-10.953,6.805l-5.333,7.004c-0.266,0.358-0.604,0.816-1.015,1.373c-1.287,1.751-2.461,2.627-3.522,2.627
		c-0.146,0-0.274-0.033-0.388-0.1c-0.112-0.066-0.169-0.14-0.169-0.219c0-0.173,0.133-0.461,0.397-0.866
		C102.175,129.943,102.64,129.337,103.303,128.527z M112.257,125.225c-0.412,0.411-0.819,0.723-1.225,0.935
		c-0.404,0.213-0.792,0.318-1.163,0.318c-0.358,0-0.647-0.096-0.866-0.288s-0.328-0.448-0.328-0.767
		c0-0.478,0.255-0.882,0.766-1.213c0.511-0.332,1.151-0.498,1.921-0.498c0.186,0,0.368,0.01,0.547,0.03
		c0.179,0.02,0.361,0.05,0.547,0.089c1.579-1.405,2.799-2.388,3.661-2.944c0.862-0.558,1.559-0.836,2.09-0.836
		c0.438,0,0.786,0.109,1.045,0.328c0.258,0.219,0.388,0.515,0.388,0.886c0,0.345-0.073,0.606-0.219,0.786
		c-0.146,0.179-0.358,0.269-0.637,0.269c-0.213,0-0.382-0.066-0.508-0.199s-0.188-0.305-0.188-0.518v-0.298
		c0-0.12-0.027-0.216-0.08-0.289c-0.053-0.072-0.119-0.109-0.199-0.109c-0.397,0-1.021,0.296-1.87,0.886
		c-0.849,0.591-1.791,1.396-2.825,2.418c0.278,0.345,0.478,0.656,0.597,0.935s0.179,0.564,0.179,0.855
		c0,0.584-0.338,1.347-1.015,2.289c-0.677,0.941-1.015,1.565-1.015,1.87c0,0.173,0.05,0.315,0.149,0.428s0.229,0.169,0.388,0.169
		c0.465,0,1.171-0.318,2.119-0.955s2.02-1.525,3.214-2.666c0.77-0.729,1.525-1.503,2.269-2.318c0.742-0.815,1.153-1.224,1.233-1.224
		c0.079,0,0.14,0.02,0.179,0.06c0.04,0.04,0.06,0.1,0.06,0.179c0,0.227-0.395,0.78-1.184,1.662s-1.794,1.867-3.015,2.955
		c-1.247,1.114-2.291,1.913-3.134,2.397s-1.589,0.727-2.238,0.727c-0.57,0-1.012-0.153-1.323-0.458s-0.468-0.736-0.468-1.294
		c0-0.702,0.358-1.528,1.074-2.477c0.717-0.948,1.075-1.629,1.075-2.04V125.225z M111.977,124.607
		c-0.159-0.053-0.321-0.093-0.487-0.119s-0.342-0.04-0.527-0.04c-0.478,0-0.869,0.09-1.174,0.269
		c-0.306,0.18-0.458,0.401-0.458,0.667c0,0.146,0.061,0.266,0.18,0.357c0.119,0.094,0.278,0.14,0.478,0.14
		c0.265,0,0.573-0.112,0.925-0.338S111.62,125.006,111.977,124.607z M112.595,119.514c3.939-1.791,7.253-3.913,9.939-6.367
		c2.686-2.454,4.029-4.351,4.029-5.691c0-0.278-0.067-0.483-0.199-0.616c-0.133-0.133-0.339-0.199-0.617-0.199
		c-1.062,0-2.739,1.121-5.034,3.362C118.418,112.244,115.712,115.415,112.595,119.514z"/>
	<path fill="#692637" d="M125.787,128.109c-1.114,1.154-2.116,2.014-3.005,2.577s-1.691,0.846-2.407,0.846
		c-0.703,0-1.254-0.223-1.651-0.667c-0.398-0.444-0.597-1.051-0.597-1.82c0-0.902,0.321-1.903,0.965-3.005
		c0.643-1.101,1.515-2.122,2.616-3.064c1.048-0.875,2.162-1.555,3.343-2.039s2.321-0.727,3.423-0.727
		c0.544,0,0.975,0.119,1.293,0.358c0.318,0.238,0.491,0.563,0.518,0.975c0.438-0.597,0.766-0.955,0.985-1.074
		c0.219-0.119,0.566-0.179,1.044-0.179c0.252,0,0.451,0.033,0.598,0.099c0.146,0.067,0.219,0.153,0.219,0.259
		c0,0.08-0.044,0.213-0.13,0.398s-0.195,0.352-0.328,0.497l-5.015,6.526c-0.305,0.412-0.544,0.79-0.716,1.135
		c-0.173,0.345-0.259,0.637-0.259,0.875c0,0.199,0.053,0.342,0.159,0.428c0.106,0.087,0.285,0.13,0.537,0.13
		c0.518,0,1.26-0.345,2.229-1.035c0.969-0.689,2.155-1.718,3.562-3.084c0.584-0.57,1.178-1.2,1.781-1.891
		c0.604-0.689,0.958-1.034,1.064-1.034c0.08,0,0.14,0.02,0.179,0.06c0.04,0.04,0.061,0.1,0.061,0.179
		c0,0.213-0.342,0.707-1.025,1.482c-0.683,0.776-1.575,1.669-2.676,2.677c-1.366,1.261-2.511,2.166-3.433,2.716
		c-0.922,0.551-1.734,0.826-2.438,0.826c-0.491,0-0.872-0.116-1.145-0.349c-0.271-0.231-0.407-0.561-0.407-0.984
		c0-0.385,0.056-0.75,0.169-1.095C125.412,128.76,125.575,128.428,125.787,128.109z M120.733,130.875
		c0.478,0,1.124-0.274,1.939-0.825c0.816-0.551,1.662-1.304,2.537-2.259c1.446-1.565,2.557-2.868,3.333-3.91
		c0.776-1.041,1.164-1.747,1.164-2.119c0-0.291-0.093-0.514-0.278-0.666c-0.187-0.152-0.465-0.229-0.836-0.229
		c-0.663,0-1.437,0.263-2.318,0.786c-0.882,0.524-1.808,1.277-2.775,2.259c-1.194,1.221-2.116,2.352-2.766,3.393
		c-0.65,1.041-0.976,1.894-0.976,2.557c0,0.332,0.083,0.584,0.249,0.756C120.173,130.789,120.415,130.875,120.733,130.875z"/>
	<path fill="#692637" d="M140.651,120.29c-1.871,2.374-3.37,4.457-4.497,6.247c-1.128,1.791-1.691,2.972-1.691,3.542
		c0,0.266,0.076,0.465,0.229,0.598s0.388,0.198,0.706,0.198c0.677,0,1.596-0.4,2.756-1.203c1.161-0.803,2.511-1.974,4.05-3.513
		c0.49-0.49,1.001-1.041,1.532-1.651c0.53-0.609,0.849-0.915,0.955-0.915c0.079,0,0.139,0.02,0.179,0.06s0.06,0.1,0.06,0.179
		c0,0.213-0.335,0.704-1.005,1.473c-0.67,0.77-1.555,1.665-2.656,2.687c-1.459,1.34-2.663,2.285-3.611,2.835
		c-0.948,0.551-1.82,0.826-2.616,0.826c-0.677,0-1.194-0.162-1.553-0.487c-0.357-0.325-0.537-0.799-0.537-1.423
		c0-1.233,0.713-2.965,2.14-5.193c1.426-2.229,3.631-5.061,6.615-8.496c2.587-2.958,4.998-5.33,7.233-7.114
		c2.235-1.783,3.877-2.676,4.925-2.676c0.358,0,0.637,0.109,0.836,0.328c0.198,0.219,0.298,0.521,0.298,0.905
		c0,1.658-1.343,3.721-4.029,6.188C148.282,116.15,144.843,118.353,140.651,120.29z M141.188,119.314
		c3.701-1.764,6.818-3.83,9.352-6.198c2.534-2.367,3.801-4.161,3.801-5.382c0-0.266-0.063-0.461-0.189-0.587
		s-0.335-0.189-0.626-0.189c-0.942,0-2.534,1.114-4.776,3.343C146.508,112.529,143.987,115.534,141.188,119.314z"/>
	<path fill="#692637" d="M159.155,132.148c-4.218,5.121-7.113,8.338-8.685,9.651c-1.572,1.312-2.981,1.97-4.229,1.97
		c-0.57,0-1.021-0.163-1.354-0.487c-0.331-0.326-0.497-0.76-0.497-1.304c0-1.3,1.184-2.932,3.552-4.895
		c2.368-1.964,5.315-3.582,8.845-4.855l2.208-2.925c-0.822,0.743-1.578,1.3-2.268,1.671c-0.69,0.371-1.32,0.558-1.891,0.558
		c-0.703,0-1.254-0.223-1.651-0.667c-0.398-0.444-0.597-1.051-0.597-1.82c0-0.902,0.321-1.903,0.965-3.005
		c0.643-1.101,1.515-2.122,2.616-3.064c1.035-0.875,2.149-1.555,3.343-2.039c1.194-0.484,2.349-0.727,3.463-0.727
		c0.543,0,0.968,0.119,1.273,0.358c0.305,0.238,0.471,0.563,0.497,0.975c0.438-0.597,0.766-0.955,0.985-1.074
		c0.219-0.119,0.566-0.179,1.044-0.179c0.252,0,0.451,0.033,0.598,0.099c0.146,0.067,0.219,0.153,0.219,0.259
		c0,0.094-0.04,0.229-0.12,0.408c-0.079,0.179-0.179,0.349-0.298,0.508l-7.402,9.65c3.887-1.473,7.216-3.754,9.989-6.845
		c0.464-0.518,0.742-0.776,0.835-0.776c0.08,0,0.143,0.02,0.189,0.06c0.046,0.04,0.069,0.1,0.069,0.179
		c0,0.677-1.184,1.957-3.552,3.841C164.936,129.556,162.22,131.048,159.155,132.148z M156.35,133.044
		c-3.25,1.287-5.945,2.815-8.088,4.587c-2.143,1.771-3.214,3.233-3.214,4.388c0,0.384,0.113,0.676,0.339,0.875
		s0.55,0.299,0.975,0.299c1.326,0,3.88-2.401,7.661-7.203C155.004,134.729,155.779,133.747,156.35,133.044z M155.235,130.875
		c0.478,0,1.114-0.274,1.911-0.825c0.796-0.551,1.638-1.304,2.526-2.259c1.446-1.565,2.557-2.868,3.333-3.91
		c0.776-1.041,1.164-1.747,1.164-2.119c0-0.305-0.09-0.53-0.269-0.676c-0.179-0.146-0.447-0.22-0.806-0.22
		c-0.677,0-1.46,0.266-2.349,0.796c-0.889,0.531-1.817,1.281-2.785,2.249c-1.194,1.221-2.116,2.352-2.766,3.393
		c-0.65,1.041-0.976,1.894-0.976,2.557c0,0.332,0.09,0.584,0.269,0.756C154.669,130.789,154.917,130.875,155.235,130.875z"/>
	<path fill="#692637" d="M169.384,128.149c-0.306,0.397-0.544,0.772-0.717,1.124c-0.172,0.352-0.259,0.634-0.259,0.846
		c0,0.199,0.054,0.342,0.159,0.428c0.106,0.087,0.285,0.13,0.538,0.13c0.478,0,1.16-0.299,2.049-0.896
		c0.889-0.598,1.957-1.479,3.204-2.646c0.769-0.717,1.521-1.485,2.258-2.309c0.736-0.822,1.151-1.233,1.244-1.233
		c0.079,0,0.143,0.02,0.188,0.06c0.047,0.04,0.07,0.1,0.07,0.179c0,0.187-0.272,0.591-0.816,1.214
		c-0.544,0.624-1.347,1.46-2.407,2.508c-1.327,1.273-2.501,2.241-3.522,2.904c-1.021,0.664-1.857,0.995-2.507,0.995
		c-0.584,0-1.028-0.152-1.333-0.457c-0.305-0.306-0.458-0.75-0.458-1.334c0-1.22,1.406-3.667,4.219-7.342l0.04-0.06
		c0.105-0.133,0.245-0.312,0.417-0.537c0.69-0.929,1.413-1.394,2.169-1.394c0.266,0,0.475,0.027,0.627,0.08s0.229,0.133,0.229,0.238
		c0,0.094-0.044,0.226-0.13,0.398s-0.195,0.338-0.328,0.497L169.384,128.149z M175.791,118.857c-0.239,0-0.435-0.076-0.587-0.229
		c-0.153-0.152-0.229-0.348-0.229-0.587c0-0.331,0.126-0.623,0.378-0.875s0.544-0.379,0.876-0.379c0.238,0,0.435,0.07,0.587,0.209
		c0.152,0.14,0.229,0.315,0.229,0.527c0,0.346-0.129,0.654-0.388,0.926S176.109,118.857,175.791,118.857z"/>
	<path fill="#692637" d="M173.881,131.95l-6.029,8.019c-0.026,0.04-0.06,0.086-0.1,0.14c-0.637,0.861-1.585,1.293-2.846,1.293
		c-0.132,0-0.219-0.023-0.259-0.069c-0.039-0.047-0.06-0.149-0.06-0.309c0-0.173,0.339-0.684,1.015-1.532
		c0.372-0.465,0.67-0.849,0.896-1.154l5.015-6.586c-0.119-0.026-0.216-0.069-0.289-0.13c-0.072-0.06-0.109-0.129-0.109-0.208
		c0-0.16,0.077-0.342,0.229-0.548c0.152-0.205,0.295-0.309,0.428-0.309c0.013,0,0.083,0.018,0.209,0.05
		c0.126,0.033,0.242,0.057,0.348,0.07l7.184-9.571c3.528-4.723,6.759-8.41,9.69-11.063c2.932-2.652,5.213-3.979,6.845-3.979
		c0.451,0,0.796,0.126,1.034,0.378c0.239,0.252,0.358,0.604,0.358,1.055c0,0.915-0.534,2.076-1.602,3.482
		c-1.068,1.406-2.504,2.812-4.308,4.218c-1.805,1.406-3.473,2.548-5.005,3.423c-1.532,0.876-2.895,1.473-4.089,1.791l-7.939,10.844
		h0.518c1.26,0,2.483-0.308,3.671-0.925s2.59-1.694,4.209-3.233c0.729-0.717,1.466-1.479,2.208-2.288
		c0.743-0.81,1.161-1.214,1.254-1.214c0.066,0,0.116,0.02,0.149,0.06s0.05,0.1,0.05,0.179c0,0.253-0.537,0.969-1.612,2.149
		c-1.074,1.181-2.301,2.328-3.681,3.442c-1.062,0.875-2.136,1.516-3.224,1.92s-2.281,0.607-3.582,0.607H173.881z M183.093,119.474
		c0.929-0.226,2.076-0.739,3.442-1.542s2.826-1.82,4.378-3.055c1.764-1.393,3.177-2.762,4.238-4.108s1.592-2.397,1.592-3.154
		c0-0.318-0.073-0.554-0.219-0.706c-0.146-0.152-0.371-0.229-0.677-0.229c-1.154,0-2.832,1.104-5.034,3.312
		C188.611,112.201,186.038,115.361,183.093,119.474z"/>
	<path fill="#692637" d="M191.112,117.763h-0.358c-0.411,0-0.703-0.026-0.875-0.08c-0.173-0.053-0.259-0.132-0.259-0.238
		c0-0.159,0.129-0.269,0.388-0.328s0.832-0.09,1.721-0.09l4.04-4.478c0.265-0.318,0.504-0.514,0.716-0.587
		c0.212-0.072,0.558-0.109,1.035-0.109c0.186,0,0.341,0.033,0.468,0.1c0.126,0.066,0.188,0.14,0.188,0.219
		c0,0.106-0.159,0.358-0.478,0.757l-0.06,0.06l-3.343,4.039h0.577c0.438,0,0.749,0.026,0.935,0.079
		c0.187,0.054,0.279,0.14,0.279,0.259c0,0.146-0.156,0.249-0.468,0.309s-0.972,0.09-1.979,0.09l-7.542,8.974
		c-0.689,0.81-1.174,1.47-1.452,1.98s-0.418,0.979-0.418,1.402c0,0.186,0.076,0.358,0.229,0.518s0.335,0.238,0.548,0.238
		c0.742,0,1.635-0.335,2.676-1.005c1.041-0.669,2.324-1.747,3.851-3.233c0.609-0.597,1.233-1.253,1.87-1.97
		c0.637-0.716,1.001-1.074,1.095-1.074c0.079,0,0.142,0.02,0.188,0.06s0.07,0.1,0.07,0.179c0,0.227-0.342,0.727-1.025,1.503
		c-0.684,0.775-1.568,1.661-2.656,2.656c-1.313,1.233-2.464,2.133-3.452,2.696s-1.888,0.846-2.696,0.846
		c-0.624,0-1.098-0.183-1.423-0.548c-0.325-0.364-0.487-0.885-0.487-1.562c0-0.756,0.269-1.618,0.806-2.587
		c0.537-0.968,1.463-2.229,2.776-3.78L191.112,117.763z"/>
	<path fill="#692637" d="M194.354,127.413c-0.198,0.371-0.338,0.724-0.418,1.055c-0.079,0.332-0.119,0.663-0.119,0.995
		c0,0.425,0.123,0.759,0.368,1.005c0.245,0.245,0.587,0.368,1.024,0.368c0.81,0,1.844-0.392,3.104-1.175
		c1.26-0.782,2.666-1.91,4.219-3.382c0.557-0.518,1.137-1.121,1.741-1.812c0.603-0.689,1.005-1.034,1.203-1.034
		c0.053,0,0.093,0.017,0.12,0.05c0.026,0.033,0.039,0.097,0.039,0.188c0,0.133-0.245,0.484-0.736,1.055
		c-0.49,0.571-1.141,1.254-1.949,2.05c-1.592,1.525-3.081,2.699-4.468,3.521c-1.386,0.823-2.563,1.234-3.531,1.234
		c-0.863,0-1.546-0.289-2.05-0.866c-0.504-0.576-0.756-1.362-0.756-2.357c0-1.048,0.354-2.129,1.064-3.243
		c0.709-1.114,1.701-2.136,2.975-3.064c0.77-0.57,1.538-1.012,2.308-1.323s1.453-0.468,2.05-0.468c0.451,0,0.799,0.109,1.045,0.328
		c0.245,0.219,0.368,0.527,0.368,0.926c0,1.021-0.696,2.086-2.09,3.193C198.474,125.765,196.637,126.684,194.354,127.413z
		 M194.634,126.558c1.923-0.61,3.491-1.39,4.705-2.338s1.821-1.841,1.821-2.677c0-0.172-0.073-0.321-0.219-0.447
		c-0.146-0.126-0.318-0.189-0.518-0.189c-0.531,0-1.347,0.527-2.447,1.582C196.875,123.543,195.761,124.899,194.634,126.558z"/>
	<path fill="#692637" d="M205.797,130.935c1.22-0.238,2.493-0.732,3.82-1.481c1.326-0.75,2.652-1.741,3.979-2.976
		c0.544-0.517,1.11-1.127,1.701-1.83c0.59-0.703,0.958-1.055,1.104-1.055c0.079,0,0.132,0.014,0.159,0.04
		c0.026,0.026,0.04,0.079,0.04,0.159c0,0.266-0.429,0.875-1.284,1.83s-1.854,1.884-2.994,2.786
		c-1.446,1.114-2.872,1.957-4.278,2.526c-1.406,0.57-2.779,0.856-4.119,0.856c-0.929,0-1.635-0.159-2.119-0.478
		c-0.483-0.318-0.726-0.776-0.726-1.373c0-0.53,0.182-1.008,0.547-1.433s0.766-0.637,1.204-0.637c0.225,0,0.418,0.066,0.577,0.198
		c0.159,0.133,0.238,0.299,0.238,0.498c0,0.212-0.306,0.438-0.915,0.677c-0.61,0.238-0.916,0.544-0.916,0.915
		c0,0.226,0.083,0.415,0.249,0.567s0.382,0.235,0.646,0.248c0.372,0,0.789-0.126,1.254-0.378c0.464-0.252,0.955-0.617,1.473-1.095
		c1.087-0.981,1.97-2.092,2.646-3.332s1.015-2.345,1.015-3.313c0-0.464-0.047-0.905-0.14-1.323s-0.232-0.792-0.418-1.124
		c-1.181,1.512-2.105,2.637-2.775,3.372c-0.67,0.736-1.091,1.104-1.264,1.104c-0.053,0-0.093-0.017-0.119-0.05
		c-0.026-0.032-0.04-0.096-0.04-0.188c0-0.173,0.435-0.729,1.304-1.672c0.868-0.941,1.602-1.837,2.198-2.686
		c0.252-0.358,0.451-0.883,0.598-1.572c0.146-0.689,0.438-1.035,0.875-1.035c0.172,0,0.315,0.07,0.428,0.209
		c0.112,0.14,0.169,0.315,0.169,0.527c0,0.346-0.1,0.684-0.298,1.015c-0.199,0.332-0.299,0.512-0.299,0.538
		c0.968,1.751,1.452,3.091,1.452,4.019c0,1.341-0.44,2.627-1.322,3.86C208.565,129.085,207.349,130.112,205.797,130.935z"/>
</g>
<g>
	<path fill="#F26E6E" d="M142.709,181.465c0.399,0,0.724-0.315,0.745-0.707l-0.053-0.327c-0.114-0.272-0.38-0.464-0.692-0.464
		c-0.413,0-0.75,0.338-0.75,0.75C141.959,181.129,142.296,181.465,142.709,181.465 M163.269,181.465c0.414,0,0.75-0.336,0.75-0.747
		c0-0.413-0.335-0.75-0.75-0.75c-0.311,0-0.578,0.191-0.69,0.464l-0.056,0.327C162.545,181.15,162.87,181.465,163.269,181.465
		 M142.709,179.301c0.589,0,1.093,0.364,1.306,0.874c3.801-0.491,6.16-2.307,6.186-2.331c0.075-0.07,0.314-0.261,0.534-0.39
		c-0.381-0.096-0.644-0.124-0.644-0.124c1.886-0.11,3.315-2.108,3.315-2.108s1.431,1.998,3.317,2.108c0,0-0.552,0.056-1.213,0.301
		c0.122,0.087,0.224,0.171,0.268,0.213c0.027,0.025,2.385,1.84,6.187,2.331c0.213-0.511,0.717-0.874,1.305-0.874
		c0.781,0,1.416,0.635,1.416,1.416c0,0.78-0.635,1.415-1.416,1.415c-0.74,0-1.342-0.575-1.402-1.299
		c-3.169-0.416-5.751-2.236-6.717-3.051c-0.736,0.342-1.503,0.927-1.744,1.936c-0.302-1.28-1.457-1.884-2.32-2.162
		c-0.675,0.637-3.47,2.817-6.972,3.277c-0.062,0.724-0.664,1.299-1.404,1.299c-0.781,0-1.416-0.635-1.416-1.415
		C141.293,179.936,141.928,179.301,142.709,179.301"/>
	<path fill="#F26E6E" d="M148.286,183.963c0.368,0,0.665-0.298,0.665-0.666c0-0.366-0.297-0.665-0.665-0.665
		c-0.368,0-0.667,0.299-0.667,0.665C147.62,183.665,147.919,183.963,148.286,183.963 M148.286,181.965
		c0.228,0,0.438,0.063,0.627,0.165l3.007-2.856c-0.198,0.244-1.745,2.491-2.516,3.305c0.132,0.208,0.213,0.453,0.213,0.717
		c0,0.735-0.597,1.332-1.332,1.332c-0.734,0-1.332-0.597-1.332-1.332C146.955,182.563,147.552,181.965,148.286,181.965"/>
	<path fill="#F26E6E" d="M158.127,183.963c0.368,0,0.666-0.298,0.666-0.665s-0.298-0.666-0.666-0.666
		c-0.368,0-0.667,0.299-0.667,0.666S157.759,183.963,158.127,183.963 M157.499,182.131c0.189-0.102,0.4-0.165,0.627-0.165
		c0.736,0,1.331,0.597,1.331,1.332s-0.595,1.332-1.331,1.332c-0.736,0-1.332-0.597-1.332-1.332c0-0.265,0.08-0.511,0.213-0.718
		c-0.77-0.814-2.318-3.061-2.517-3.305L157.499,182.131z"/>
	<path fill="#F26E6E" d="M153.114,184.963c0.367,0,0.665-0.3,0.665-0.665c0-0.368-0.298-0.667-0.665-0.667
		c-0.366,0-0.668,0.299-0.668,0.667C152.446,184.663,152.748,184.963,153.114,184.963 M152.864,182.99v-2.44
		c0-0.183,0.15-0.331,0.334-0.331c0.185,0,0.333,0.148,0.333,0.331v2.489c0.529,0.175,0.917,0.67,0.917,1.259
		c0,0.619-0.428,1.134-1,1.283v2.211c0,0.185-0.148,0.334-0.332,0.334c-0.183,0-0.333-0.149-0.333-0.334v-2.211
		c-0.573-0.149-1-0.664-1-1.283C151.781,183.647,152.249,183.107,152.864,182.99"/>
	<path fill="#F26E6E" d="M191.718,166.358c2.316,0.504,4.101,1.335,4.702,1.634c1.176-1.139,2.87-1.984,4.415-2.577
		C197.778,165.777,194.718,166.088,191.718,166.358 M153.7,173.556c0.141,0.105,0.282,0.211,0.429,0.306
		c3.685,2.431,9.008,3.797,12.587,1.364c1.23-0.834,1.908-2.084,1.912-3.518c0.005-1.321-0.601-2.66-1.469-3.258
		c-0.825-0.567-2.147-0.698-3.289-0.326c-0.883,0.288-1.524,0.833-1.758,1.495c-0.336,0.953-0.249,1.996,0.228,2.722
		c0.233,0.353,0.659,0.783,1.366,0.83c0.674,0.045,1.1-0.023,1.299-0.21c0.062-0.058,0.109-0.133,0.145-0.233l-0.078-0.113
		c-0.89-0.111-0.943-1.054-0.943-1.054c0-1,1.331-1.553,1.831-0.331c0.498,1.219-0.389,2.108-0.389,2.108l-0.003-0.007l-0.108,0.117
		c-0.352,0.328-0.907,0.448-1.799,0.389c-0.765-0.051-1.432-0.451-1.878-1.128c-0.399-0.61-0.577-1.391-0.525-2.189
		c-0.206-0.039-0.463-0.008-0.68,0.264c-0.446,0.555-0.721,2.276-1.888,2.11c-1.166-0.167-1.166-1.332-1.166-1.332
		c1.275,1.665,1.775,0.384,2.275-1.221c0.392-1.255,1.311-1.317,1.816-1.246c0.225-0.437,0.593-0.81,1.053-1.113
		c-2.52,0.06-4.19,0.078-4.728,0.081C157.561,168.791,156.017,171.564,153.7,173.556 M148.387,168.06
		c-0.536-0.002-2.207-0.021-4.726-0.081c0.46,0.302,0.829,0.676,1.053,1.113c0.503-0.071,1.422-0.008,1.815,1.246
		c0.501,1.605,1,2.886,2.275,1.221c0,0,0,1.166-1.166,1.332c-1.166,0.166-1.443-1.555-1.886-2.11
		c-0.218-0.272-0.476-0.304-0.682-0.264c0.052,0.798-0.125,1.579-0.526,2.189c-0.446,0.677-1.113,1.077-1.877,1.128
		c-0.893,0.059-1.446-0.062-1.799-0.389l-0.106-0.117l-0.005,0.007c0,0-0.888-0.888-0.388-2.108
		c0.498-1.222,1.831-0.668,1.831,0.331c0,0-0.056,0.943-0.943,1.054l-0.078,0.113c0.035,0.1,0.083,0.175,0.146,0.233
		c0.2,0.187,0.623,0.255,1.297,0.21c0.707-0.047,1.136-0.477,1.367-0.83c0.477-0.726,0.564-1.768,0.227-2.722
		c-0.231-0.662-0.873-1.207-1.757-1.495c-1.142-0.372-2.464-0.241-3.289,0.326c-0.867,0.597-1.472,1.937-1.467,3.258
		c0.003,1.435,0.682,2.684,1.91,3.518c3.581,2.433,8.903,1.067,12.587-1.364c0.148-0.095,0.288-0.201,0.43-0.306
		C150.313,171.564,148.769,168.791,148.387,168.06 M133.29,171.743c0.967,0.735,1.88,1.431,2.635,1.958
		c0.885,0.616,1.771,1.089,2.562,1.451c-0.933-0.916-1.449-2.107-1.452-3.443c-0.005-1.552,0.701-3.083,1.757-3.808l0.107-0.063
		c-3.519-0.122-7.805-0.31-12.532-0.598C128.096,167.787,130.845,169.88,133.29,171.743 M170.404,173.701
		c0.756-0.527,1.67-1.223,2.637-1.958c2.444-1.863,5.195-3.957,6.923-4.504c-4.729,0.288-9.014,0.477-12.535,0.598l0.108,0.063
		c1.054,0.725,1.762,2.257,1.757,3.808c-0.003,1.336-0.518,2.527-1.452,3.443C168.634,174.79,169.521,174.317,170.404,173.701
		 M105.496,165.416c1.545,0.593,3.238,1.438,4.415,2.577c0.6-0.299,2.386-1.13,4.702-1.634
		C111.611,166.088,108.553,165.777,105.496,165.416 M245.506,157.953c-0.112,0.029-11.46,2.909-39.329,6.777
		c-0.442,0.063-0.887,0.122-1.331,0.181l-0.093,0.041c-0.055,0.01-5.589,1.122-8.039,3.676l-0.175,0.184l-0.225-0.122
		c-0.035-0.019-3.621-1.936-7.749-2.061c-1.74,0.142-3.451,0.269-5.122,0.384c0.461,0.093,0.895,0.249,1.26,0.513
		c0.168,0.119,0.311,0.256,0.44,0.408c1.394,1.03,0.898,2.69,0.298,3.017c-0.611,0.332-1.5-0.168-1.5-0.722
		c0-0.84,0.224-0.943,0.667-1.11c0.299-0.111,0.246-0.369,0.18-0.53c-0.121-0.203-0.274-0.38-0.471-0.523
		c-0.77-0.555-2.16-0.647-3.909-0.26c-1.555,0.346-4.553,2.631-6.964,4.466c-0.971,0.741-1.891,1.442-2.657,1.976
		c-2.772,1.93-5.501,2.526-5.616,2.55l-0.403,0.091c-3.621,0.831-7.797-0.357-11.006-2.47c-0.203-0.135-0.403-0.279-0.598-0.428
		c-0.194,0.149-0.393,0.293-0.596,0.428c-3.208,2.113-7.384,3.301-11.006,2.47l-0.403-0.091c-0.114-0.025-2.844-0.62-5.615-2.55
		c-0.766-0.534-1.685-1.235-2.656-1.976c-2.411-1.835-5.411-4.12-6.965-4.466c-1.748-0.388-3.136-0.295-3.909,0.26
		c-0.197,0.143-0.35,0.32-0.471,0.523c-0.068,0.161-0.12,0.419,0.179,0.53c0.443,0.167,0.665,0.271,0.665,1.11
		c0,0.554-0.887,1.054-1.499,0.722c-0.599-0.327-1.096-1.987,0.3-3.017c0.127-0.151,0.272-0.288,0.436-0.408
		c0.366-0.264,0.8-0.42,1.261-0.513c-1.669-0.115-3.38-0.242-5.123-0.384c-4.126,0.125-7.711,2.041-7.748,2.061l-0.225,0.122
		l-0.175-0.184c-2.449-2.554-7.981-3.666-8.036-3.676l-0.094-0.041c-0.445-0.058-0.889-0.118-1.332-0.181
		c-27.869-3.868-39.216-6.748-39.327-6.777c-0.152-0.038-0.25-0.175-0.25-0.323l0.009-0.082c0.047-0.178,0.227-0.285,0.405-0.241
		c0.111,0.03,11.432,2.904,39.254,6.765c5.861,0.813,11.872,1.427,17.576,1.893c0.121-0.003,0.477,0.013,0.527,0.044
		c16.357,1.309,30.06,1.389,30.245,1.39l0.208,0.001l0.09,0.184c0.018,0.038,1.691,3.367,4.273,5.549
		c2.585-2.182,4.257-5.511,4.276-5.549l0.092-0.184l0.206-0.001c0.186-0.002,13.888-0.081,30.246-1.39
		c0.05-0.031,0.406-0.047,0.526-0.044c5.705-0.466,11.715-1.08,17.577-1.893c27.822-3.861,39.143-6.735,39.253-6.765
		c0.179-0.045,0.361,0.062,0.404,0.241l0.012,0.082C245.755,157.778,245.655,157.914,245.506,157.953"/>
	<path fill="#F26E6E" d="M153.281,170.727c-1.416-1.165-1.916-3.163-1.916-3.163h3.415
		C154.78,168.729,153.281,170.727,153.281,170.727"/>
	<path fill="#F26E6E" d="M152.947,159.156c-0.551,0-0.999,0.447-0.999,0.998c0,0.551,0.448,1,0.999,1c0.551,0,0.999-0.448,0.999-1
		C153.946,159.603,153.499,159.156,152.947,159.156 M193.263,158.291c-0.107,0.018-10.289,1.65-36.675,2.227l-3.765,1.967
		l-3.528-1.841c-29.794,0.347-36.621-2.259-36.9-2.37c-0.171-0.068-0.252-0.263-0.185-0.434c0.07-0.17,0.263-0.252,0.434-0.184
		c0.065,0.025,6.929,2.611,35.766,2.33l4.413-1.828l4.073,1.688c26.088-0.581,36.155-2.194,36.258-2.211
		c0.182-0.03,0.356,0.093,0.384,0.275C193.568,158.089,193.445,158.262,193.263,158.291"/>
	<path fill="#F26E6E" d="M215.515,34.04c-2.49,0-2.891-1.49-2.904-1.553c-0.039-0.155,0.054-0.314,0.211-0.353
		c0.156-0.039,0.314,0.055,0.351,0.212c0.012,0.042,0.332,1.111,2.341,1.111c1.845,0,2.766-2.365,2.918-2.317
		C218.588,31.19,217.783,34.04,215.515,34.04 M149.463,23.721c0-0.437,0.211-0.437,0.303-0.437h6.8c0.09,0,0.304,0,0.304,0.437
		c0,0.567-0.091,0.593-0.278,0.593h-6.854C149.553,24.314,149.463,24.289,149.463,23.721 M154.249,30.903
		c0,0.559-0.401,1.027-0.931,1.13v-2.261C153.848,29.876,154.249,30.342,154.249,30.903 M151.942,30.903
		c0-0.541,0.374-0.991,0.877-1.116v2.231C152.316,31.894,151.942,31.442,151.942,30.903 M90.815,33.457
		c2.01,0,2.328-1.07,2.341-1.116c0.041-0.152,0.198-0.247,0.354-0.206c0.155,0.042,0.248,0.197,0.211,0.351
		c-0.017,0.063-0.418,1.553-2.906,1.553c-2.267,0-3.071-2.85-2.919-2.899C88.05,31.093,88.976,33.457,90.815,33.457 M142.611,21.373
		c-1.831,0.024-2.226,2.067-2.365,2.051c-0.137-0.016,0.085-2.521,2.359-2.551h0.051c2.261,0,3.113,1.988,3.252,2.76
		c0.022,0.135-0.068,0.265-0.205,0.29l-0.043,0.002c-0.119,0-0.224-0.084-0.245-0.205C145.296,23.059,144.561,21.339,142.611,21.373
		 M146.364,13.517c0.079-0.053,0.174-0.111,0.276-0.165c1.221-0.273,4.109-0.495,6.406,2.623l0.057,0.156l0.055-0.158
		c2.304-3.122,5.198-2.893,6.414-2.62c0.101,0.055,0.195,0.111,0.274,0.164c-1.563,0.209-5.714,1.275-6.742,6.65
		C152.09,14.793,147.931,13.726,146.364,13.517 M151.809,10.21c0.255-0.364,0.491-0.643,0.7-0.893
		c0.248-0.295,0.459-0.547,0.594-0.815c0.137,0.268,0.345,0.52,0.595,0.815c0.208,0.25,0.444,0.529,0.698,0.893
		c0.331,0.468,0.875,1.249,0.341,2.936c-0.737,0.476-1.302,1.096-1.634,1.668c-0.331-0.571-0.897-1.192-1.635-1.668
		C150.935,11.46,151.478,10.679,151.809,10.21 M160.67,23.924l-0.045-0.002c-0.133-0.025-0.225-0.155-0.199-0.29
		c0.138-0.772,0.991-2.76,3.249-2.76h0.052c2.272,0.03,2.496,2.535,2.357,2.551c-0.137,0.018-0.533-2.027-2.364-2.051l-0.044-0.001
		c-1.918,0-2.643,1.691-2.759,2.347C160.896,23.841,160.79,23.924,160.67,23.924 M216.475,24.965
		c-1.661-1.688-4.706-3.537-10.075-3.537c-8.131,0-13.872,3.337-19.421,6.565c-0.586,0.341-1.17,0.677-1.753,1.012v-2.359
		c0-0.998,0.092-1.861,0.221-2.555c0.84-0.908,1.081-1.597,1.063-1.918c-0.012-0.21-0.118-0.37-0.29-0.427
		c-0.133-0.045-0.279-0.019-0.41,0.075c-0.329,0.238-0.624,1.003-0.823,2.018c-0.892,0.929-2.505,2.157-5.333,3.467
		c-4.872,2.256-9.63,2.261-9.659,2.253c-0.135-0.01-0.251,0.108-0.251,0.247c0,0.138,0.109,0.251,0.248,0.252
		c0.058,0.003,4.9,0.004,9.874-2.299c2.401-1.113,3.977-2.18,4.987-3.089c-0.079,0.621-0.125,1.294-0.125,1.975v2.643
		c-4.673,2.647-9.362,4.876-15.581,4.876c-11.413,0-13.772-5.528-14.038-9.35h1.48c0.777,0,0.777-0.754,0.777-1.114
		c0-0.703-0.414-0.953-0.802-0.953h-1.389c0.493-4.023,3.346-6.479,7.728-6.479c4.601,0,7.451,3.5,7.451,6.742
		c0,3.412-2.69,5.703-5.202,5.703c-0.854,0-1.56-0.271-2.122-0.629c-0.747-0.541-1.237-1.36-1.286-2.314
		c-0.066-1.334,0.673-2.498,1.801-2.607c2.38-0.228,1.183,2.231,1.615,2.553c0.35,0.261,2.338-1.665,1.126-3.951
		c-0.636-1.205-1.999-1.752-3.412-1.424c-1.365,0.317-2.796,1.451-2.822,3.816c-0.042,3.797,2.738,4.719,4.101,4.944
		c0.309,0.07,0.643,0.111,0.999,0.111c2.753,0,5.701-2.493,5.701-6.202c0-3.482-3.038-7.241-7.949-7.241
		c-4.615,0-7.722,2.703-8.232,6.978h-1.195l-0.002-1.732c0.848-6.958,6.717-7.051,6.966-7.051l0.504-0.001l-0.304-0.4
		c-0.039-0.049-0.95-1.207-3.293-1.207c-0.734,0-1.409,0.175-2.001,0.452c0.362-1.597-0.215-2.42-0.544-2.886
		c-0.266-0.379-0.509-0.669-0.722-0.926c-0.404-0.479-0.646-0.767-0.646-1.178c0-0.428-0.025-0.81-0.334-0.81
		c-0.309,0-0.333,0.383-0.333,0.81c0,0.411-0.244,0.699-0.646,1.178c-0.214,0.257-0.457,0.547-0.726,0.926
		c-0.325,0.465-0.9,1.289-0.541,2.886c-0.591-0.277-1.264-0.452-2-0.452c-2.344,0-3.256,1.158-3.294,1.207l-0.303,0.4l0.503,0.001
		c0.249,0.001,6.116,0.094,6.965,7.021v1.762h-1.068c-0.512-4.275-3.622-6.978-8.236-6.978c-4.91,0-7.95,3.759-7.95,7.241
		c0,3.709,2.949,6.202,5.704,6.202c0.356,0,0.688-0.041,0.997-0.111c1.364-0.225,4.144-1.149,4.101-4.944
		c-0.027-2.365-1.455-3.499-2.822-3.816c-1.415-0.328-2.776,0.219-3.413,1.424c-1.209,2.286,0.778,4.212,1.13,3.951
		c0.429-0.323-0.769-2.782,1.612-2.553c1.128,0.108,1.865,1.273,1.801,2.607c-0.048,0.954-0.537,1.772-1.286,2.314
		c-0.561,0.358-1.266,0.63-2.121,0.63c-2.513,0-5.203-2.291-5.203-5.703c0-3.242,2.847-6.742,7.45-6.742
		c4.38,0,7.237,2.457,7.731,6.479h-1.391c-0.389,0-0.805,0.251-0.805,0.953c0,0.361,0,1.114,0.777,1.114h1.482
		c-0.268,3.822-2.625,9.35-14.038,9.35c-6.219,0-10.908-2.229-15.581-4.876v-2.643c0-0.68-0.043-1.353-0.123-1.974
		c1.008,0.908,2.582,1.975,4.986,3.088c4.972,2.303,9.818,2.297,9.873,2.299c0.139-0.002,0.251-0.114,0.249-0.252
		c-0.002-0.137-0.113-0.247-0.249-0.247h-0.002c-0.033-0.007-4.788,0.003-9.661-2.253c-2.828-1.31-4.437-2.538-5.33-3.467
		c-0.199-1.015-0.494-1.781-0.824-2.018c-0.131-0.095-0.276-0.12-0.413-0.075c-0.168,0.057-0.276,0.217-0.287,0.427
		c-0.018,0.321,0.222,1.01,1.063,1.918c0.128,0.694,0.219,1.557,0.219,2.555v2.359c-0.583-0.334-1.166-0.671-1.751-1.012
		c-5.551-3.228-11.29-6.565-19.421-6.565c-5.358,0-8.401,1.84-10.063,3.526c-1.445,1.366-2.709,3.658-2.673,5.757
		c0.041,2.371,1.745,4.111,3.579,4.078c2.288-0.042,3.289-1.541,3.371-2.913c0.083-1.375-0.416-2.206-0.79-2.206
		c-0.375,0,0.11,2.081-1.886,2.331c-1.362,0.171-2.804-0.444-2.943-2.83c-0.107-1.862,1.294-3.45,1.739-3.903
		c1.599-1.604,4.517-3.34,9.666-3.34c7.996,0,13.676,3.302,19.168,6.498c0.665,0.385,1.33,0.774,2.003,1.156v4.295
		c-0.271-0.15-0.695-0.405-1.134-0.669c-1.853-1.113-4.952-2.972-8.232-4.396c-3.927-1.708-6.911-2.232-8.907-1.599
		c-0.437,0.094-1.335,0.376-1.316,1.126c0.028,1.11,1.712,1.238,2.066,0.423c0.281-0.642-0.121-1.036-0.296-1.172
		c1.873-0.45,4.642,0.11,8.256,1.68c3.248,1.412,6.333,3.261,8.173,4.366c1.17,0.701,1.473,0.881,1.632,0.881l0.127-0.042l0.13-0.08
		v-4.533c4.534,2.547,9.384,4.803,15.581,4.803c12.148,0,14.281-6.355,14.537-9.85h1.101v4.463
		c-0.781,0.134-1.377,0.809-1.377,1.625c0,0.817,0.596,1.492,1.377,1.625v2.47c0,0.137,0.11,0.249,0.248,0.249
		c0.138,0,0.251-0.112,0.251-0.249v-2.464c0.807-0.111,1.432-0.794,1.432-1.631c0-0.837-0.625-1.52-1.432-1.63v-4.459h1.295
		c0.254,3.495,2.389,9.85,14.537,9.85c6.196,0,11.047-2.257,15.581-4.803v4.387l0.003,0.156l0.128,0.071l0.126,0.042
		c0.158,0,0.462-0.18,1.632-0.881c1.842-1.105,4.924-2.954,8.176-4.366c3.611-1.569,6.381-2.13,8.252-1.68
		c-0.174,0.135-0.577,0.53-0.294,1.172c0.356,0.815,2.04,0.687,2.067-0.423c0.018-0.747-0.876-1.03-1.316-1.125
		c-1.995-0.634-4.98-0.11-8.908,1.598c-3.28,1.425-6.379,3.284-8.232,4.396c-0.44,0.264-0.863,0.519-1.136,0.669v-4.295
		c0.673-0.383,1.342-0.771,2.004-1.156c5.494-3.195,11.174-6.498,19.17-6.498c5.139,0,8.056,1.73,9.659,3.331
		c0.434,0.443,1.855,2.038,1.745,3.912c-0.14,2.386-1.582,3.002-2.941,2.83c-1.998-0.25-1.513-2.331-1.888-2.331
		c-0.374,0-0.875,0.831-0.793,2.206c0.084,1.372,1.084,2.872,3.373,2.913c1.835,0.033,3.538-1.707,3.58-4.078
		C219.174,28.618,217.913,26.333,216.475,24.965"/>
</g>
</svg>
