<?xml version="1.0" encoding="utf-8"?>
<!-- Generator: Adobe Illustrator 17.1.0, SVG Export Plug-In . SVG Version: 6.00 Build 0)  -->
<!DOCTYPE svg PUBLIC "-//W3C//DTD SVG 1.1//EN" "http://www.w3.org/Graphics/SVG/1.1/DTD/svg11.dtd">
<svg version="1.1" id="Layer_1" xmlns="http://www.w3.org/2000/svg" xmlns:xlink="http://www.w3.org/1999/xlink" x="0px" y="0px"
	 viewBox="0 0 85 85" enable-background="new 0 0 85 85" xml:space="preserve">
<g>
	<path fill="#FF6F6D" d="M39.2,22.9c0-1.2,0-2.4,0-3.5c0-2,1.4-3.4,3.3-3.4c2,0,3.3,1.4,3.4,3.4c0,1.1,0,2.2,0,3.4
		c12.5,1.6,22.1,7.7,28.3,18.7c3,5.3,4.5,11.1,4.4,17.3c-24,0-48,0-72.1,0c0-9.3,3.2-17.4,9.4-24.2C22.1,27.7,29.9,23.9,39.2,22.9z"
		/>
	<path fill="#FF6F6D" d="M42.5,62.4c11.9,0,23.8,0,35.7,0c2.8,0,4.4,2.6,3.1,4.9c-0.6,1-1.4,1.6-2.6,1.7c-0.3,0-0.6,0-0.9,0
		c-23.6,0-47.2,0-70.8,0c-2.5,0-4.1-1.7-3.8-3.9c0.3-1.7,1.6-2.8,3.5-2.8c6.7,0,13.4,0,20.1,0C32.1,62.4,37.3,62.4,42.5,62.4z"/>
</g>
</svg>
