<?xml version="1.0" encoding="utf-8"?>
<!-- Generator: Adobe Illustrator 17.1.0, SVG Export Plug-In . SVG Version: 6.00 Build 0)  -->
<!DOCTYPE svg PUBLIC "-//W3C//DTD SVG 1.1//EN" "http://www.w3.org/Graphics/SVG/1.1/DTD/svg11.dtd">
<svg version="1.1" id="Layer_1" xmlns="http://www.w3.org/2000/svg" xmlns:xlink="http://www.w3.org/1999/xlink" x="0px" y="0px"
	 viewBox="0 0 85 85" enable-background="new 0 0 85 85" xml:space="preserve">
<g>
	<path fill="#FF6F6D" d="M34.1,78.5c-1.6,0-3-0.5-4.1-1.7C22,67.9,14,59,5.9,50.1c-1.5-1.7-2.1-3.6-1.4-5.8c0.7-2.2,2.3-3.5,4.6-3.8
		c1.7-0.3,3.2,0.3,4.4,1.4c5.9,5.1,11.8,10.1,17.6,15.2c1.7,1.5,1.6,1.5,3-0.3c12.6-16,25.3-32,37.9-48C74,6.4,76.8,5.9,79,7.5
		c2.2,1.6,2.5,4.3,0.8,6.8C70.9,27.7,62,41.1,53.1,54.5c-4.7,7.1-9.4,14.1-14,21.2C37.9,77.5,36.3,78.5,34.1,78.5z"/>
</g>
</svg>
