<?xml version="1.0" encoding="utf-8"?>
<!-- Generator: Adobe Illustrator 17.1.0, SVG Export Plug-In . SVG Version: 6.00 Build 0)  -->
<!DOCTYPE svg PUBLIC "-//W3C//DTD SVG 1.1//EN" "http://www.w3.org/Graphics/SVG/1.1/DTD/svg11.dtd">
<svg version="1.1" id="Layer_1" xmlns="http://www.w3.org/2000/svg" xmlns:xlink="http://www.w3.org/1999/xlink" x="0px" y="0px"
	 viewBox="0 0 85 85" enable-background="new 0 0 85 85" xml:space="preserve">
<g>
	<path fill="#FF6F6D" d="M59.3,9.6c-0.2,2-0.3,3.9-0.6,5.9c-0.3,2.2-1.1,4.2-2.4,6C56,22,55.6,22.4,55.9,23c0.5,1.2,0,2.2-1,2.9
		c-2.3,1.7-2.3,3.8-1.2,6.1c1.4,2.7,0.9,5-1.4,7.1c-1.1,1-2.1,2.2-2.8,3.6c-0.3,0.7-0.4,1.3-0.1,2c3,6.1,4.2,12.8,5.6,19.5
		c1,4.8,1.9,9.7,3.6,14.3c0.4,1,0,1.6-0.9,1.9c-0.7,0.3-1.5,0.5-2.3,0.5c-3.5,0-7.1,0-10.6,0.3c-5,0.5-9.8-0.9-14.4-2.7
		c-6-2.3-11.7-5.3-17-8.8c-2.1-1.4-4.2-2.8-6.3-4.2c-1.4-1-2.4-2.2-3-3.9c-0.6-1.7-1.3-3.2-1.7-5c-0.5-2.2-0.3-2.6,1.6-3.7
		c4.4-2.4,9.2-3.6,14-5.1c1.5-0.4,2.9-1,4.3-1.4c1-0.3,1.2-0.6,0.6-1.5c-1.2-1.8-1.1-3.9-0.3-5.8c0.6-1.5,1.8-2.5,3.5-2.6
		c1.5-0.1,2.7,0.7,3.4,2c0.6,1.1,1.1,1,2,0.5c4.8-2.7,9.6-5.4,13.4-9.4c0.8-0.8,1.4-1.7,2.2-2.5c0.4-0.5,0.5-0.8-0.3-1.2
		c-2.4-1-3.5-3.7-2.9-6.2c0.2-0.9,0.8-1.4,1.7-1.5c1.2-0.1,2.2-0.6,3.1-1.3c1.4-1.1,2.5-0.9,3.7,0.5c1.1,1.3,1.1,1.3,1.8-0.3
		c1.2-2.9,2.5-5.9,2.9-9c0.1-0.9,0.2-1.8,0.1-2.7C57.2,4.2,57.8,4,58.6,4c0.8,0,2.1-0.6,2.3,0.7c0.8,4.9,3.8,8.9,5.9,13.2
		c0,0.1,0.1,0.1,0.2,0.2c1.2-2.2,3-3.3,5.5-3.2c1.4,0,2.6,0.6,3.3,1.9c0.7,1.4,0.8,2.8-0.2,4c-1.1,1.3-0.8,2.2,0.2,3.4
		c1.3,1.5,2.7,2.9,4.2,4.2c0.6,0.5,0.8,1,0.8,1.8c-0.4,6,0.8,11.8,1.8,17.7c0.4,2.3-0.5,4-1.5,5.8c-0.4,0.8-1.3,1.1-2.2,0.9
		c-0.8-0.2-1.2-0.6-1-1.5c1.2-5.2-0.5-10-2-14.9c-0.3-1-0.8-0.7-1.3-0.2c-0.8,1-1.1,2.1-1.1,3.3c0,2.2,0,4.4,0,6.6
		c0,0.8,0.1,1.6-1,1.8c-0.5,0.1-0.5,0.7-0.6,1.2c-1.1,3.9-1.3,8-1,12c0.5,5.4,1,10.7,1.6,16.1c0.1,1.3-0.3,1.8-1.6,1.8
		c-2.6,0-5.2,0-7.7,0c-0.5,0-2.6-1.9-2.6-2.4c0-0.6,0.5-0.9,1-1c0.7-0.1,1.4-0.1,2.1-0.1c1.1,0,1.7-0.4,1.7-1.7
		c0.2-5.1-0.8-10.1-1.8-15c-0.9-4.2-1.5-8.3-1.3-12.6c0-0.5,0.1-1-0.2-1.5c-1.3-1.6-1-3.4-0.5-5.1c0.6-2.1,1.6-4.1,2.5-6.1
		c1-2.3,1.2-4.5,0.3-6.8c-0.3-0.9-0.3-1.7,0.3-2.5c0.5-0.6,0.4-1.2,0-1.9c-2.2-3.7-3.6-7.8-5.2-11.7C59.2,11.4,59.6,10.5,59.3,9.6z
		 M31.1,42.2c1.8-0.2,3.1-0.7,4.3-1.2c1.9-0.8,3.8-1.8,5.8-2c1.6-0.2,2-1.2,2.3-2.5c0.1-0.3,0.1-0.6-0.1-0.8
		c-0.3-0.2-0.5,0.1-0.7,0.2c-2.1,0.9-4.2,1.9-6.3,2.8C34.6,39.7,32.8,40.6,31.1,42.2z"/>
</g>
</svg>
