<?xml version="1.0" encoding="utf-8"?>
<!-- Generator: Adobe Illustrator 17.1.0, SVG Export Plug-In . SVG Version: 6.00 Build 0)  -->
<!DOCTYPE svg PUBLIC "-//W3C//DTD SVG 1.1//EN" "http://www.w3.org/Graphics/SVG/1.1/DTD/svg11.dtd">
<svg version="1.1" id="Layer_1" xmlns="http://www.w3.org/2000/svg" xmlns:xlink="http://www.w3.org/1999/xlink" x="0px" y="0px"
	 viewBox="0 0 85 85" enable-background="new 0 0 85 85" xml:space="preserve">
<g>
	<path fill="#FF6F6D" d="M8,44.6C8,39,8,33.4,8,27.8c0-1.4,0.5-2.3,1.7-3c2.4-1.3,4.8-2.8,7.2-4.1c0.6-0.4,1.1-0.7,0.8-1.6
		c-1.1-3.5-0.3-6.8,1.7-9.7c2.3-3.3,5.2-6,9.3-7c4.3-1,7.8,0.4,10.7,3.5c0.7,0.8,1.3,1.1,2.2,0.5c0.6-0.4,1.3-0.4,1.9,0.1
		c0.9,0.6,1.4,0.3,2-0.4c2.5-2.7,5.6-4.2,9.4-3.8c3.6,0.3,6.3,2.3,8.7,4.8c2.7,2.8,4.5,6,4.1,10c0,0.4,0,0.7-0.1,1.1
		c-0.4,2.1-0.4,2.1,1.4,3.1c2.3,1.3,4.5,2.7,6.8,3.9c0.8,0.5,1.2,1,1.2,2c0,11.6,0,23.1,0,34.7c0,1.2-0.4,1.9-1.4,2.5
		c-10.5,6.1-20.9,12.1-31.4,18.2c-1.1,0.7-2.1,0.8-3.4,0.1C30.6,76.5,20.2,70.5,9.8,64.5c-1.3-0.7-1.8-1.6-1.8-3.1
		C8,55.8,8,50.2,8,44.6z M71.8,46.3c0-4.4,0-8.7,0-13.1c0-0.9-0.2-1.1-1-0.6c-2.6,1.5-5.2,3-7.9,4.5c-0.6,0.4-0.8,0.8-0.8,1.5
		c0,8.6,0,17.2,0,25.7c0,1,0.3,1.3,1.2,0.7c2.5-1.5,5-2.9,7.5-4.3c0.8-0.4,1-1,1-1.8C71.8,54.8,71.8,50.5,71.8,46.3z M13.3,46.2
		c0,4.3,0,8.5,0,12.8c0,0.9,0.3,1.5,1.1,1.9c2.5,1.4,4.9,2.8,7.3,4.2c1.2,0.7,1.3,0.6,1.3-0.8c0-8.4,0-16.9,0-25.3
		c0-0.9-0.3-1.5-1.1-1.9c-2.5-1.4-5-2.8-7.5-4.3c-1-0.6-1.2-0.3-1.2,0.7C13.3,37.6,13.3,41.9,13.3,46.2z M30.3,41.9
		c-0.1,0.3-0.2,0.4-0.2,0.4c0,8.9,0,17.8,0,26.7c0,0.8,0.4,1.2,1,1.6c2.5,1.4,5.1,2.9,7.6,4.4c0.8,0.5,1.1,0.3,1.1-0.6
		c0-8.7,0-17.3,0-26c0-0.6-0.1-1-0.6-1.4C36.2,45.3,33.3,43.6,30.3,41.9z M54.7,41.9c-3,1.7-5.9,3.4-8.9,5.1
		c-0.6,0.4-0.6,0.9-0.6,1.5c0,8.6,0,17.2,0,25.7c0,1.2,0.4,1.1,1.2,0.6c2.4-1.4,4.8-2.8,7.2-4.1c1-0.5,1.4-1.2,1.3-2.3
		c0-8.4,0-16.8,0-25.2C55,42.8,55.1,42.4,54.7,41.9z M51.8,36.9c-0.1-0.1-0.3-0.3-0.5-0.4c-2.7-1.6-5.4-3.1-8.1-4.7
		c-0.5-0.3-1-0.3-1.5,0c-2.6,1.5-5.3,3.1-8,4.6c-0.7,0.4-0.6,0.7,0,1.1c2.6,1.5,5.2,3,7.8,4.5c0.6,0.3,1.2,0.3,1.8,0
		c2.6-1.5,5.2-3,7.8-4.5C51.5,37.4,51.8,37.3,51.8,36.9z M31.3,29.6c-2.7-0.9-5.3-1.4-7.1-3.1c-2.6-2.4-4.7-1.6-7.1,0.1
		c-0.7,0.5-1,0.8,0,1.3c2.6,1.5,5.2,3,7.7,4.4c0.4,0.3,0.9,0.5,1.4,0.2C27.8,31.6,29.4,30.7,31.3,29.6z M53.8,29.7
		c1.8,1,3.4,1.9,4.9,2.8c0.4,0.2,0.7,0.3,1.1,0c2.8-1.6,5.5-3.2,8.3-4.8c0.6-0.3,0.6-0.6,0-0.9c-1.2-0.6-2.3-1.3-3.5-2
		c-0.6-0.4-1.1-0.2-1.7,0.2c-1.3,1.1-2.7,2-4.3,2.6C57.2,28.4,55.6,29,53.8,29.7z M53.9,9.2c-0.8,0-1.4,0.3-2.1,0.8
		c-0.7,0.5-0.6,0.9,0.1,1.3c2.6,1.5,5.2,3,7.8,4.4c0.2,0.1,0.5,0.5,0.8,0.2c0.2-0.2,0.1-0.6,0-0.9c-0.9-2.2-2.5-3.9-4.5-5.1
		C55.3,9.5,54.7,9.2,53.9,9.2z M24.6,15.9c0.7-0.1,1.3-0.6,1.9-0.9c2-1.2,4.1-2.3,6.1-3.5c0.4-0.2,1.1-0.3,1.1-0.9
		c0-0.6-0.7-0.8-1.1-1c-0.3-0.2-0.7-0.3-1-0.3C28.9,8.8,24.4,13.2,24.6,15.9z M38.1,19.5c-0.1-0.5-0.3-1.1-0.4-1.8
		c-0.7-2.4-0.7-2.4-2.8-1.2c-0.4,0.2-0.9,0.5-1.3,0.7c-0.5,0.3-0.6,0.5,0,0.9c1.2,0.7,2.4,1.4,3.7,2.1
		C37.9,20.5,38.2,20.3,38.1,19.5z M46.9,19.4c-0.1,1,0.3,1.1,0.9,0.7c1.2-0.7,2.3-1.3,3.5-2c0.8-0.4,0.6-0.7-0.1-1.1
		c-3.6-1.8-2.9-2.9-4.1,1.7C47,19,47,19.3,46.9,19.4z"/>
</g>
</svg>
