<?xml version="1.0" encoding="utf-8"?>
<!-- Generator: Adobe Illustrator 17.1.0, SVG Export Plug-In . SVG Version: 6.00 Build 0)  -->
<!DOCTYPE svg PUBLIC "-//W3C//DTD SVG 1.1//EN" "http://www.w3.org/Graphics/SVG/1.1/DTD/svg11.dtd">
<svg version="1.1" id="Layer_1" xmlns="http://www.w3.org/2000/svg" xmlns:xlink="http://www.w3.org/1999/xlink" x="0px" y="0px"
	 viewBox="0 0 85 85" enable-background="new 0 0 85 85" xml:space="preserve">
<path fill="#FF6F6D" d="M83.3,44.4c-0.8,21-18.1,39.1-40.9,39C19.3,83.3,1.6,64.9,1.6,42.5c0-22.9,18.3-40.9,40.9-40.9
	C66.4,1.6,84.6,21.5,83.3,44.4z M42.6,29.1c-7.6,0.3-13.4,5.8-13.4,13.4c-0.1,7.3,5.4,13.5,13.4,13.5c7.7,0,13.3-5.7,13.5-13.4
	C56.1,35.2,49.9,29.1,42.6,29.1z M42.5,41.1c-0.8,0-1.4,0.6-1.4,1.4s0.6,1.4,1.4,1.4c0.8,0,1.4-0.6,1.4-1.4S43.3,41.1,42.5,41.1z"/>
</svg>
