<?xml version="1.0" encoding="utf-8"?>
<!-- Generator: Adobe Illustrator 17.1.0, SVG Export Plug-In . SVG Version: 6.00 Build 0)  -->
<!DOCTYPE svg PUBLIC "-//W3C//DTD SVG 1.1//EN" "http://www.w3.org/Graphics/SVG/1.1/DTD/svg11.dtd">
<svg version="1.1" id="Layer_1" xmlns="http://www.w3.org/2000/svg" xmlns:xlink="http://www.w3.org/1999/xlink" x="0px" y="0px"
	 viewBox="0 0 85 85" enable-background="new 0 0 85 85" xml:space="preserve">
<g>
	<path fill="#FF6F6D" d="M53.1,34.3c5.8,10.1,4.1,25.2-7.4,34c-11.1,8.6-27,7.1-36.5-3.4C-0.2,54.6,0,38.6,9.7,28.3
		c9.5-10.1,25.4-11.3,35.8-3.1c-1.7,1.7-3.5,3.5-5.2,5.1c-2.1-0.8-4.4-2-6.8-2.5C22.2,25.3,11,33.5,9.9,45
		c-1,10.7,6.4,19.8,17.1,21.3c10.1,1.4,19.8-6,21.5-16.4c0.5-2.8,0.3-5.5-0.5-8.2c-0.1-0.4-0.3-1-0.1-1.3
		C49.1,37.8,50.8,35.8,53.1,34.3z"/>
	<path fill="#FF6F6D" d="M41.5,57C34.8,46.1,39,30,53.3,24.8c-3-2-5.9-3.9-9-5.9c1.1-1.7,2.2-3.4,3.4-5.1c0.2-0.3,0.6-0.4,1-0.5
		c3.3-0.7,6.6-1.4,9.9-2.1c0.3-0.1,0.7,0,1,0.1c1.7,1.1,3.4,2.2,5.1,3.3c-1.9,3-3.8,5.9-5.8,8.9c12.4,0.4,20.8,6,23.4,18.2
		c1.9,8.9-1.3,16.4-8.5,21.9c-6.2,4.7-13.2,5.6-20.8,3.1c1.1-1.6,2-3.1,3-4.4c0.2-0.3,0.9-0.3,1.3-0.2c6.8,1.1,12.4-1,16.5-6.5
		c7.5-10,1.2-24.6-11.2-26.1c-11.4-1.4-20.7,8.7-18.2,20c0.3,1.6-0.3,2.9-0.9,4.1C43,54.7,42.2,55.8,41.5,57z"/>
</g>
</svg>
