<?xml version="1.0" encoding="utf-8"?>
<!-- Generator: Adobe Illustrator 17.1.0, SVG Export Plug-In . SVG Version: 6.00 Build 0)  -->
<!DOCTYPE svg PUBLIC "-//W3C//DTD SVG 1.1//EN" "http://www.w3.org/Graphics/SVG/1.1/DTD/svg11.dtd">
<svg version="1.1" id="Layer_1" xmlns="http://www.w3.org/2000/svg" xmlns:xlink="http://www.w3.org/1999/xlink" x="0px" y="0px"
	 viewBox="0 0 85 85" enable-background="new 0 0 85 85" xml:space="preserve">
<g>
	<path fill="#FF6F6D" d="M42.6,22.6c1.4-2.5,3.1-4.7,5.4-6.4c6.1-4.6,12.9-5.7,20-2.9c7.1,2.8,11.5,8.2,12.6,15.8
		c1.1,7.7-1.4,14.6-5.9,20.8C69.6,57,62.8,62.2,55.4,66.8c-3.9,2.4-8,4.5-12.2,6.2c-0.7,0.3-1.4,0.4-2.2,0.1
		c-9.8-4.4-18.9-9.9-26.5-17.7C9.5,50.1,5.9,44,4.5,36.7c-2-10.9,3.9-20.8,14.2-24c8.6-2.6,18.2,1,23,8.7
		C41.9,21.8,42.1,22.3,42.6,22.6z"/>
</g>
</svg>
