<?xml version="1.0" encoding="utf-8"?>
<!-- Generator: Adobe Illustrator 17.1.0, SVG Export Plug-In . SVG Version: 6.00 Build 0)  -->
<!DOCTYPE svg PUBLIC "-//W3C//DTD SVG 1.1//EN" "http://www.w3.org/Graphics/SVG/1.1/DTD/svg11.dtd">
<svg version="1.1" id="Layer_1" xmlns="http://www.w3.org/2000/svg" xmlns:xlink="http://www.w3.org/1999/xlink" x="0px" y="0px"
	 viewBox="0 0 85 85" enable-background="new 0 0 85 85" xml:space="preserve">
<g>
	<path fill="#FF6F6D" d="M44.8,82.4C25.3,82.5,7.9,67.8,5,47.9C2.2,27.7,14.4,8.8,34.1,3.1c0.6-0.2,1.2-0.3,1.8-0.4
		c0.6-0.1,1.1,0,1.4,0.6c0.3,0.6,0.3,1.2-0.1,1.7c-0.2,0.3-0.6,0.6-0.9,0.9c-6,5.8-9.8,12.8-10.6,21.1c-1.3,14.3,4.2,25.5,16.4,33.3
		c5.4,3.5,11.4,5,17.8,5c6.1,0,11.9-1.6,17.3-4.8c0.3-0.2,0.5-0.3,0.8-0.4c0.7-0.3,1.3-0.4,1.9,0.2c0.6,0.6,0.6,1.3,0.2,2
		c-1.3,2.4-2.9,4.6-4.7,6.6c-6.6,7.4-14.8,11.9-24.7,13.3c-0.8,0.1-1.7,0.2-2.5,0.3C47.1,82.4,46,82.4,44.8,82.4z"/>
</g>
</svg>
